<svg width="39" height="28" viewBox="0 0 39 28" fill="none" xmlns="http://www.w3.org/2000/svg">
<path d="M0.613281 9V0.46875H3.02148C3.76367 0.46875 4.41992 0.632812 4.99023 0.960938C5.56055 1.28906 6 1.75586 6.30859 2.36133C6.62109 2.9668 6.7793 3.66211 6.7832 4.44727V4.99219C6.7832 5.79688 6.62695 6.50195 6.31445 7.10742C6.00586 7.71289 5.5625 8.17773 4.98438 8.50195C4.41016 8.82617 3.74023 8.99219 2.97461 9H0.613281ZM1.73828 1.39453V8.08008H2.92188C3.78906 8.08008 4.46289 7.81055 4.94336 7.27148C5.42773 6.73242 5.66992 5.96484 5.66992 4.96875V4.4707C5.66992 3.50195 5.44141 2.75 4.98438 2.21484C4.53125 1.67578 3.88672 1.40234 3.05078 1.39453H1.73828ZM9.49609 9H8.41211V2.66016H9.49609V9ZM8.32422 0.978516C8.32422 0.802734 8.37695 0.654297 8.48242 0.533203C8.5918 0.412109 8.75195 0.351562 8.96289 0.351562C9.17383 0.351562 9.33398 0.412109 9.44336 0.533203C9.55273 0.654297 9.60742 0.802734 9.60742 0.978516C9.60742 1.1543 9.55273 1.30078 9.44336 1.41797C9.33398 1.53516 9.17383 1.59375 8.96289 1.59375C8.75195 1.59375 8.5918 1.53516 8.48242 1.41797C8.37695 1.30078 8.32422 1.1543 8.32422 0.978516ZM14.9277 7.31836C14.9277 7.02539 14.8164 6.79883 14.5938 6.63867C14.375 6.47461 13.9902 6.33398 13.4395 6.2168C12.8926 6.09961 12.457 5.95898 12.1328 5.79492C11.8125 5.63086 11.5742 5.43555 11.418 5.20898C11.2656 4.98242 11.1895 4.71289 11.1895 4.40039C11.1895 3.88086 11.4082 3.44141 11.8457 3.08203C12.2871 2.72266 12.8496 2.54297 13.5332 2.54297C14.252 2.54297 14.834 2.72852 15.2793 3.09961C15.7285 3.4707 15.9531 3.94531 15.9531 4.52344H14.8633C14.8633 4.22656 14.7363 3.9707 14.4824 3.75586C14.2324 3.54102 13.916 3.43359 13.5332 3.43359C13.1387 3.43359 12.8301 3.51953 12.6074 3.69141C12.3848 3.86328 12.2734 4.08789 12.2734 4.36523C12.2734 4.62695 12.377 4.82422 12.584 4.95703C12.791 5.08984 13.1641 5.2168 13.7031 5.33789C14.2461 5.45898 14.6855 5.60352 15.0215 5.77148C15.3574 5.93945 15.6055 6.14258 15.7656 6.38086C15.9297 6.61523 16.0117 6.90234 16.0117 7.24219C16.0117 7.80859 15.7852 8.26367 15.332 8.60742C14.8789 8.94727 14.291 9.11719 13.5684 9.11719C13.0605 9.11719 12.6113 9.02734 12.2207 8.84766C11.8301 8.66797 11.5234 8.41797 11.3008 8.09766C11.082 7.77344 10.9727 7.42383 10.9727 7.04883H12.0566C12.0762 7.41211 12.2207 7.70117 12.4902 7.91602C12.7637 8.12695 13.123 8.23242 13.5684 8.23242C13.9785 8.23242 14.3066 8.15039 14.5527 7.98633C14.8027 7.81836 14.9277 7.5957 14.9277 7.31836ZM22.7793 5.90039C22.7793 6.86523 22.5586 7.64258 22.1172 8.23242C21.6758 8.82227 21.0781 9.11719 20.3242 9.11719C19.5547 9.11719 18.9492 8.87305 18.5078 8.38477V11.4375H17.4238V2.66016H18.4141L18.4668 3.36328C18.9082 2.81641 19.5215 2.54297 20.3066 2.54297C21.0684 2.54297 21.6699 2.83008 22.1113 3.4043C22.5566 3.97852 22.7793 4.77734 22.7793 5.80078V5.90039ZM21.6953 5.77734C21.6953 5.0625 21.543 4.49805 21.2383 4.08398C20.9336 3.66992 20.5156 3.46289 19.9844 3.46289C19.3281 3.46289 18.8359 3.75391 18.5078 4.33594V7.36523C18.832 7.94336 19.3281 8.23242 19.9961 8.23242C20.5156 8.23242 20.9277 8.02734 21.2324 7.61719C21.541 7.20312 21.6953 6.58984 21.6953 5.77734ZM25.3398 9H24.2559V0H25.3398V9ZM30.9941 9C30.9316 8.875 30.8809 8.65234 30.8418 8.33203C30.3379 8.85547 29.7363 9.11719 29.0371 9.11719C28.4121 9.11719 27.8984 8.94141 27.4961 8.58984C27.0977 8.23438 26.8984 7.78516 26.8984 7.24219C26.8984 6.58203 27.1484 6.07031 27.6484 5.70703C28.1523 5.33984 28.8594 5.15625 29.7695 5.15625H30.8242V4.6582C30.8242 4.2793 30.7109 3.97852 30.4844 3.75586C30.2578 3.5293 29.9238 3.41602 29.4824 3.41602C29.0957 3.41602 28.7715 3.51367 28.5098 3.70898C28.248 3.9043 28.1172 4.14062 28.1172 4.41797H27.0273C27.0273 4.10156 27.1387 3.79688 27.3613 3.50391C27.5879 3.20703 27.8926 2.97266 28.2754 2.80078C28.6621 2.62891 29.0859 2.54297 29.5469 2.54297C30.2773 2.54297 30.8496 2.72656 31.2637 3.09375C31.6777 3.45703 31.8926 3.95898 31.9082 4.59961V7.51758C31.9082 8.09961 31.9824 8.5625 32.1309 8.90625V9H30.9941ZM29.1953 8.17383C29.5352 8.17383 29.8574 8.08594 30.1621 7.91016C30.4668 7.73438 30.6875 7.50586 30.8242 7.22461V5.92383H29.9746C28.6465 5.92383 27.9824 6.3125 27.9824 7.08984C27.9824 7.42969 28.0957 7.69531 28.3223 7.88672C28.5488 8.07812 28.8398 8.17383 29.1953 8.17383ZM35.5879 7.41211L37.0645 2.66016H38.2246L35.6758 9.97852C35.2812 11.0332 34.6543 11.5605 33.7949 11.5605L33.5898 11.543L33.1855 11.4668V10.5879L33.4785 10.6113C33.8457 10.6113 34.1309 10.5371 34.334 10.3887C34.541 10.2402 34.7109 9.96875 34.8438 9.57422L35.084 8.92969L32.8223 2.66016H34.0059L35.5879 7.41211ZM8.99902 20.5635C7.87337 20.2399 7.05306 19.8434 6.53809 19.374C6.02767 18.9001 5.77246 18.3167 5.77246 17.624C5.77246 16.8402 6.08464 16.193 6.70898 15.6826C7.33789 15.1676 8.15365 14.9102 9.15625 14.9102C9.83984 14.9102 10.4482 15.0423 10.9814 15.3066C11.5192 15.571 11.9339 15.9355 12.2256 16.4004C12.5218 16.8652 12.6699 17.3734 12.6699 17.9248H11.3506C11.3506 17.3232 11.1592 16.8516 10.7764 16.5098C10.3936 16.1634 9.85352 15.9902 9.15625 15.9902C8.50911 15.9902 8.00326 16.1338 7.63867 16.4209C7.27865 16.7035 7.09863 17.0977 7.09863 17.6035C7.09863 18.0091 7.26953 18.3532 7.61133 18.6357C7.95768 18.9137 8.54329 19.1689 9.36816 19.4014C10.1976 19.6338 10.8447 19.8913 11.3096 20.1738C11.779 20.4518 12.1253 20.7777 12.3486 21.1514C12.5765 21.5251 12.6904 21.9648 12.6904 22.4707C12.6904 23.2773 12.376 23.9245 11.7471 24.4121C11.1182 24.8952 10.2773 25.1367 9.22461 25.1367C8.54102 25.1367 7.90299 25.0068 7.31055 24.7471C6.7181 24.4827 6.26009 24.1227 5.93652 23.667C5.61751 23.2113 5.45801 22.694 5.45801 22.1152H6.77734C6.77734 22.7168 6.99837 23.193 7.44043 23.5439C7.88704 23.8903 8.48177 24.0635 9.22461 24.0635C9.91732 24.0635 10.4482 23.9222 10.8174 23.6396C11.1865 23.3571 11.3711 22.972 11.3711 22.4844C11.3711 21.9967 11.2002 21.6208 10.8584 21.3564C10.5166 21.0876 9.89681 20.8232 8.99902 20.5635ZM15.8965 15.8125V17.6035H17.2773V18.5811H15.8965V23.168C15.8965 23.4642 15.958 23.6875 16.0811 23.8379C16.2041 23.9837 16.4137 24.0566 16.71 24.0566C16.8558 24.0566 17.0563 24.0293 17.3115 23.9746V25C16.9788 25.0911 16.6553 25.1367 16.3408 25.1367C15.7757 25.1367 15.3496 24.9658 15.0625 24.624C14.7754 24.2822 14.6318 23.7969 14.6318 23.168V18.5811H13.2852V17.6035H14.6318V15.8125H15.8965ZM21.8301 25.1367C20.8275 25.1367 20.0117 24.8086 19.3828 24.1523C18.7539 23.4915 18.4395 22.6097 18.4395 21.5068V21.2744C18.4395 20.5407 18.5785 19.8867 18.8564 19.3125C19.139 18.7337 19.5309 18.2826 20.0322 17.959C20.5381 17.6309 21.085 17.4668 21.6729 17.4668C22.6344 17.4668 23.3818 17.7835 23.915 18.417C24.4482 19.0505 24.7148 19.9574 24.7148 21.1377V21.6641H19.7041C19.7223 22.3932 19.9342 22.9834 20.3398 23.4346C20.75 23.8812 21.2695 24.1045 21.8984 24.1045C22.3451 24.1045 22.7233 24.0133 23.0332 23.8311C23.3431 23.6488 23.6143 23.4072 23.8467 23.1064L24.6191 23.708C23.9993 24.6605 23.0697 25.1367 21.8301 25.1367ZM21.6729 18.5059C21.1624 18.5059 20.734 18.6927 20.3877 19.0664C20.0413 19.4355 19.8271 19.9551 19.7451 20.625H23.4502V20.5293C23.4137 19.8867 23.2406 19.39 22.9307 19.0391C22.6208 18.6836 22.2015 18.5059 21.6729 18.5059ZM32.4326 21.3838C32.4326 22.5094 32.1751 23.4163 31.6602 24.1045C31.1452 24.7926 30.4479 25.1367 29.5684 25.1367C28.6706 25.1367 27.9642 24.8519 27.4492 24.2822V27.8438H26.1846V17.6035H27.3398L27.4014 18.4238C27.9163 17.7858 28.6318 17.4668 29.5479 17.4668C30.4365 17.4668 31.1383 17.8018 31.6533 18.4717C32.1729 19.1416 32.4326 20.0736 32.4326 21.2676V21.3838ZM31.168 21.2402C31.168 20.4062 30.9902 19.7477 30.6348 19.2646C30.2793 18.7816 29.7917 18.54 29.1719 18.54C28.4062 18.54 27.832 18.8796 27.4492 19.5586V23.0928C27.8275 23.7673 28.4062 24.1045 29.1855 24.1045C29.7917 24.1045 30.2725 23.8652 30.6279 23.3867C30.988 22.9036 31.168 22.1882 31.168 21.2402Z" fill="black"/>
</svg>
